<svg width="1280" height="720" viewBox="0 0 1280 720" fill="none" xmlns="http://www.w3.org/2000/svg">
  <defs>
    <linearGradient id="bg" x1="80" y1="48" x2="1212" y2="676" gradientUnits="userSpaceOnUse">
      <stop stop-color="#0F172A"/>
      <stop offset="1" stop-color="#1D4ED8"/>
    </linearGradient>
    <linearGradient id="card" x1="155" y1="135" x2="922" y2="586" gradientUnits="userSpaceOnUse">
      <stop stop-color="#F8FAFC"/>
      <stop offset="1" stop-color="#E2E8F0"/>
    </linearGradient>
    <linearGradient id="accent" x1="186" y1="164" x2="784" y2="544" gradientUnits="userSpaceOnUse">
      <stop stop-color="#38BDF8"/>
      <stop offset="1" stop-color="#22C55E"/>
    </linearGradient>
    <filter id="shadow" x="121" y="107" width="1038" height="558" filterUnits="userSpaceOnUse" color-interpolation-filters="sRGB">
      <feFlood flood-opacity="0" result="BackgroundImageFix"/>
      <feColorMatrix in="SourceAlpha" type="matrix" values="0 0 0 0 0 0 0 0 0 0 0 0 0 0 0 0 0 0 127 0" result="hardAlpha"/>
      <feOffset dx="16" dy="24"/>
      <feGaussianBlur stdDeviation="25"/>
      <feColorMatrix type="matrix" values="0 0 0 0 0.0588235 0 0 0 0 0.0941176 0 0 0 0 0.160784 0 0 0 0.28 0"/>
      <feBlend mode="normal" in2="BackgroundImageFix" result="effect1_dropShadow_1_2"/>
      <feBlend mode="normal" in="SourceGraphic" in2="effect1_dropShadow_1_2" result="shape"/>
    </filter>
  </defs>

  <rect width="1280" height="720" rx="28" fill="url(#bg)"/>
  <circle cx="1120" cy="120" r="170" fill="#38BDF8" fill-opacity="0.14"/>
  <circle cx="102" cy="652" r="130" fill="#22C55E" fill-opacity="0.14"/>

  <g filter="url(#shadow)">
    <rect x="155" y="135" width="947" height="459" rx="28" fill="url(#card)"/>
  </g>

  <rect x="186" y="164" width="887" height="54" rx="16" fill="#0F172A"/>
  <circle cx="220" cy="191" r="8" fill="#FB7185"/>
  <circle cx="247" cy="191" r="8" fill="#FBBF24"/>
  <circle cx="274" cy="191" r="8" fill="#34D399"/>
  <rect x="325" y="179" width="336" height="24" rx="12" fill="#1E293B"/>
  <rect x="347" y="186" width="156" height="10" rx="5" fill="#38BDF8" fill-opacity="0.85"/>

  <rect x="186" y="239" width="420" height="282" rx="22" fill="#0F172A"/>
  <rect x="222" y="273" width="232" height="18" rx="9" fill="#38BDF8"/>
  <rect x="222" y="306" width="298" height="12" rx="6" fill="#94A3B8"/>
  <rect x="222" y="331" width="254" height="12" rx="6" fill="#475569"/>

  <rect x="222" y="382" width="145" height="90" rx="18" fill="#111827"/>
  <rect x="389" y="382" width="181" height="90" rx="18" fill="url(#accent)"/>
  <text x="244" y="416" fill="#94A3B8" font-family="Segoe UI, Arial, sans-serif" font-size="18" font-weight="600">Pages</text>
  <text x="244" y="455" fill="#F8FAFC" font-family="Segoe UI, Arial, sans-serif" font-size="34" font-weight="700">3+</text>
  <text x="414" y="416" fill="#E0F2FE" font-family="Segoe UI, Arial, sans-serif" font-size="18" font-weight="600">Records</text>
  <text x="414" y="455" fill="#FFFFFF" font-family="Segoe UI, Arial, sans-serif" font-size="34" font-weight="700">60</text>

  <rect x="653" y="239" width="380" height="282" rx="22" fill="#FFFFFF"/>
  <rect x="686" y="274" width="118" height="16" rx="8" fill="#1D4ED8"/>
  <rect x="686" y="311" width="314" height="34" rx="10" fill="#EFF6FF"/>
  <rect x="705" y="333" width="118" height="8" rx="4" fill="#60A5FA"/>
  <rect x="686" y="362" width="314" height="34" rx="10" fill="#F8FAFC"/>
  <rect x="705" y="384" width="143" height="8" rx="4" fill="#94A3B8"/>
  <rect x="686" y="413" width="314" height="34" rx="10" fill="#EFF6FF"/>
  <rect x="705" y="435" width="168" height="8" rx="4" fill="#22C55E"/>
  <rect x="686" y="464" width="314" height="34" rx="10" fill="#F8FAFC"/>
  <rect x="705" y="486" width="190" height="8" rx="4" fill="#94A3B8"/>

  <rect x="186" y="549" width="212" height="13" rx="6.5" fill="#CBD5E1"/>
  <rect x="417" y="549" width="196" height="13" rx="6.5" fill="#94A3B8"/>
  <rect x="632" y="549" width="164" height="13" rx="6.5" fill="#38BDF8"/>

  <text x="155" y="92" fill="#E2E8F0" font-family="Segoe UI, Arial, sans-serif" font-size="22" font-weight="700" letter-spacing="0.08em">PORTFOLIO PROJECT</text>
  <text x="155" y="660" fill="#FFFFFF" font-family="Segoe UI, Arial, sans-serif" font-size="46" font-weight="800">Python Web Scraper</text>
  <text x="155" y="698" fill="#BFDBFE" font-family="Segoe UI, Arial, sans-serif" font-size="24" font-weight="600">Structured extraction, cleaning, and Excel export</text>
</svg>
